<svg id="macos" viewBox="0 0 100 100" style="stroke:currentColor; stroke-width: 9; fill: transparent" {{.Attributes}}>
    <path d="M 66.00 78.00 L 66.00 21.00 L 66.00 21.00 66.52 17.52 68.02 14.33 70.39 11.72 73.41 9.91 76.82 9.06 80.34 9.23 83.66 10.42 86.49 12.51 88.58 15.34 89.77 18.66 89.94 22.18 89.09 25.59 87.28 28.61 84.67 30.98 81.48 32.48 78.00 33.00 L 21.00 33.00 L 21.00 33.00 17.52 32.48 14.33 30.98 11.72 28.61 9.91 25.59 9.06 22.18 9.23 18.66 10.42 15.34 12.51 12.51 15.34 10.42 18.66 9.23 22.18 9.06 25.59 9.91 28.61 11.72 30.98 14.33 32.48 17.52 33.00 21.00 L 33.00 78.00 L 33.00 78.00 32.48 81.48 30.98 84.67 28.61 87.28 25.59 89.09 22.18 89.94 18.66 89.77 15.34 88.58 12.51 86.49 10.42 83.66 9.23 80.34 9.06 76.82 9.91 73.41 11.72 70.39 14.33 68.02 17.52 66.52 21.00 66.00 L 78.00 66.00 L 78.00 66.00 81.48 66.52 84.67 68.02 87.28 70.39 89.09 73.41 89.94 76.82 89.77 80.34 88.58 83.66 86.49 86.49 83.66 88.58 80.34 89.77 76.82 89.94 73.41 89.09 70.39 87.28 68.02 84.67 66.52 81.48 66.00 78.00"/>
</svg>